<svg height="29.25" viewBox="0 0 29.25 29.25" width="29.25" xmlns="http://www.w3.org/2000/svg"><g fill="#fff" transform="translate(-3.375 -3.375)"><path d="m14.815 10.378a1.362 1.362 0 0 1 1.92 0l6.708 6.729a1.356 1.356 0 0 1 .042 1.87l-6.609 6.63a1.355 1.355 0 1 1 -1.92-1.912l5.618-5.7-5.759-5.7a1.341 1.341 0 0 1 0-1.917z"/><path d="m3.375 18a14.625 14.625 0 1 0 14.625-14.625 14.623 14.623 0 0 0 -14.625 14.625zm2.25 0a12.37 12.37 0 0 1 21.122-8.747 12.37 12.37 0 1 1 -17.494 17.494 12.269 12.269 0 0 1 -3.628-8.747z"/></g></svg>